<?xml version="1.0" encoding="UTF-8"?>
<svg width="40px" height="40px" viewBox="0 0 40 40" version="1.1" xmlns="http://www.w3.org/2000/svg" xmlns:xlink="http://www.w3.org/1999/xlink">
    <!-- Generator: Sketch 48.2 (47327) - http://www.bohemiancoding.com/sketch -->
    <title>ph ( logo )</title>
    <desc>Created with Sketch.</desc>
    <defs></defs>
    <g id="Projects" stroke="none" stroke-width="1" fill="none" fill-rule="evenodd" transform="translate(-220.000000, -5.000000)">
        <g id="navbar" fill="#FFFFFF" fill-rule="nonzero">
            <g id="logo" transform="translate(220.000000, 5.000000)">
                <path d="M39.9656152,17.5414991 C39.6888151,16.9186989 39.336415,16.4118987 38.9052148,15.9162985 C38.4760146,15.4294983 37.9736144,14.9922981 37.4136142,14.622298 C37.0944141,14.4114979 36.755214,14.2250978 36.4048138,14.0590978 C36.4204138,14.0450978 36.4328138,14.0306978 36.4480139,14.0166978 C36.6268139,13.8594977 36.826414,13.7082977 37.0396141,13.5686976 C37.2496142,13.4290975 37.4872142,13.2962975 37.7044143,13.1826975 L37.7500143,13.1586974 C37.8524144,13.1046974 37.9320144,13.0082974 37.9608144,12.8866973 C38.0128144,12.6634973 37.8740144,12.4398972 37.6512143,12.3874972 C37.3496142,12.3166971 37.0704141,12.2638971 36.770014,12.2262971 C36.4720139,12.1882971 36.1668137,12.1678971 35.8488136,12.1698971 C35.5312135,12.1734971 35.2008134,12.2002971 34.8528132,12.2702971 C34.7072132,12.3006971 34.5568131,12.3442971 34.4056131,12.3922972 C34.115613,11.7826969 33.7384128,11.1950967 33.2576126,10.7030965 C32.7244124,10.1506963 32.0740122,9.74349615 31.4196119,9.48109605 C30.7616117,9.21749595 30.1004114,9.0854959 29.4568112,9.00309586 C29.2868111,8.98189586 29.1148111,9.07069589 29.039611,9.23509595 C28.947211,9.43709603 29.036011,9.67629612 29.2380111,9.76909616 L29.2428111,9.77109616 C29.7968113,10.0246963 30.3160115,10.3182964 30.7420117,10.6710965 C31.1680118,11.0246966 31.495612,11.4298968 31.7100121,11.875897 C31.7196121,11.895497 31.7260121,11.915897 31.7352121,11.935097 C30.8492117,11.6410969 29.9476114,11.4962968 29.066411,11.4778968 C28.0748107,11.4582968 27.1052103,11.5822968 26.17841,11.8286969 C25.2532096,12.076697 24.3636093,12.4458972 23.568809,12.9718974 C23.4152089,13.0734974 23.3476089,13.2718975 23.4172089,13.4510976 C23.4972089,13.6570976 23.729209,13.7590977 23.9356091,13.6786976 L23.9428091,13.6758976 C24.7272094,13.3702975 25.5672097,13.2194975 26.39881,13.1802975 C27.2308104,13.1422974 28.0596107,13.2186975 28.838811,13.4062975 C29.1960111,13.4918976 29.5396112,13.6050976 29.8692114,13.7374977 C29.7120113,13.8082977 29.5556112,13.8790977 29.4056112,13.9578977 C28.992011,14.1770978 28.5988109,14.4238979 28.2304107,14.709098 C27.8640106,14.9970981 27.5108105,15.3182983 27.2360104,15.7406984 C27.1572103,15.8630985 27.1464103,16.0246985 27.2240103,16.1598986 C27.3340104,16.3530987 27.5800105,16.4206987 27.7740106,16.3102986 L27.8176106,16.2854986 C28.1104107,16.1186986 28.4688108,16.0110985 28.831211,15.9394985 C29.1960111,15.8678985 29.5724112,15.8314985 29.9416114,15.8238985 C30.1392115,15.8202985 30.3344115,15.8262985 30.5260116,15.8406985 C30.4284116,15.9142985 30.3300115,15.9874985 30.2344115,16.0638985 C29.1036111,16.9694989 28.1180107,18.0690993 27.3120104,19.2998998 C26.5060101,20.5307002 25.8864098,21.8963008 25.4684097,23.3255013 C25.3696096,23.6583014 25.2844096,23.9975016 25.2076096,24.3383017 C23.3160089,24.0275016 21.3968081,23.8683015 19.4888074,23.8651015 L19.4888074,20.6763003 L20.5460078,20.6763003 C21.167208,20.6763003 21.3164081,20.3167002 20.8768079,19.8771 L15.0080057,14.0086978 C14.5684055,13.5690976 13.8500053,13.5690976 13.4108051,14.0086978 L7.54160287,19.8775 C7.1020027,20.3171002 7.25080276,20.6767003 7.87240299,20.6767003 L8.92960339,20.6767003 L8.92960339,25.5359021 C5.48480208,26.7075026 2.39760091,28.4891033 0,30.8867042 C0.648800247,30.6971041 1.33400051,30.5915041 2.03720077,30.5915041 C3.13360119,30.5915041 4.18400159,30.8455042 5.11760195,31.2715043 C6.03040229,31.6887045 7.05120268,31.9335046 8.10920308,31.9335046 C9.17200349,31.9335046 10.1928039,31.6887045 11.1044042,31.2715043 C12.0320046,30.8447042 13.086005,30.5915041 14.1844054,30.5915041 C15.2780058,30.5915041 16.3324062,30.8455042 17.2648066,31.2715043 C18.1732069,31.6887045 19.1880073,31.9335046 20.2528077,31.9335046 C21.3164081,31.9335046 22.3340085,31.6887045 23.2520088,31.2715043 C24.1816092,30.8447042 25.2364096,30.5915041 26.32361,30.5915041 C27.4224104,30.5915041 28.4748108,30.8455042 29.4080112,31.2715043 C30.3132115,31.6887045 31.3432119,31.9335046 32.3948123,31.9335046 C33.4584127,31.9335046 34.4732131,31.6887045 35.3940135,31.2715043 C36.3228138,30.8447042 37.3752142,30.5915041 38.4676146,30.5915041 C38.8868148,30.5915041 39.2992149,30.6291041 39.7016151,30.6991041 C36.3588138,27.882303 32.2172122,25.9443023 27.8144106,24.8691019 C27.8388106,24.5391018 27.8728106,24.2087016 27.9216106,23.8775015 C28.1024107,22.634701 28.4612108,21.4099006 29.003611,20.2555001 C29.5460112,19.1026997 30.2700115,18.0182993 31.1604118,17.0742989 C31.4280119,16.7910988 31.7124121,16.5206987 32.0092122,16.2638986 C32.1824122,16.3210986 32.3688123,16.3518987 32.5592124,16.3466987 C32.6216124,16.3450987 32.6804124,16.3318987 32.7412124,16.3230986 C32.7916125,16.3582987 32.8428125,16.3906987 32.8976125,16.4198987 C33.0584126,16.7362988 33.1964126,17.0874989 33.3032127,17.4570991 C33.4168127,17.8514992 33.4976127,18.2650994 33.5388127,18.6810995 C33.5796128,19.0958997 33.5816128,19.5202999 33.5028127,19.9007 L33.4944127,19.9391 C33.4640127,20.0891001 33.5204127,20.2507001 33.6524128,20.3467002 C33.8328129,20.4775002 34.084813,20.4375002 34.215613,20.2571001 C34.5336131,19.8191 34.7336132,19.3442998 34.8960133,18.8618996 C35.0560133,18.3778994 35.1708134,17.8802992 35.2428134,17.368699 C35.2956134,16.9874989 35.3260134,16.5978988 35.3260134,16.1958986 C35.7464136,16.2130986 36.1676137,16.2710986 36.5844139,16.3782987 C37.0768141,16.5050987 37.5628143,16.7002988 38.0236145,16.9634989 C38.4776146,17.220299 38.9332148,17.5714991 39.2736149,17.9358993 L39.3112149,17.9762993 C39.424015,18.0966993 39.6052151,18.1386993 39.7644151,18.0678993 C39.9644152,17.9778993 40.0548152,17.7422992 39.9656152,17.5414991 Z"></path>
            </g>
        </g>
    </g>
</svg>