<?xml version="1.0" encoding="UTF-8"?>
<svg width="40px" height="40px" viewBox="0 0 40 40" version="1.1" xmlns="http://www.w3.org/2000/svg" xmlns:xlink="http://www.w3.org/1999/xlink">
    <!-- Generator: Sketch 48.2 (47327) - http://www.bohemiancoding.com/sketch -->
    <title>notification</title>
    <desc>Created with Sketch.</desc>
    <defs></defs>
    <g id="Projects" stroke="none" stroke-width="1" fill="none" fill-rule="evenodd" transform="translate(-1121.000000, -5.000000)">
        <g id="navbar" fill="#FFFFFF">
            <g id="notification" transform="translate(1121.000000, 5.000000)">
                <path d="M20.5,30 C21.6,30 22.5,29.1 22.5,28 L18.5,28 C18.5,29.1 19.4,30 20.5,30 L20.5,30 Z M27,24 L27,18.5 C27,15.4 24.9,12.9 22,12.2 L22,11.5 C22,10.7 21.3,10 20.5,10 C19.7,10 19,10.7 19,11.5 L19,12.2 C16.1,12.9 14,15.4 14,18.5 L14,24 L12,26 L12,27 L29,27 L29,26 L27,24 L27,24 Z"></path>
            </g>
        </g>
    </g>
</svg>