<?xml version="1.0" encoding="UTF-8"?>
<svg width="20px" height="20px" viewBox="0 0 20 20" version="1.1" xmlns="http://www.w3.org/2000/svg" xmlns:xlink="http://www.w3.org/1999/xlink">
    <!-- Generator: Sketch 48.2 (47327) - http://www.bohemiancoding.com/sketch -->
    <title>settings</title>
    <desc>Created with Sketch.</desc>
    <defs></defs>
    <g id="Projects" stroke="none" stroke-width="1" fill="none" fill-rule="evenodd" transform="translate(-430.000000, -190.000000)" opacity="0.3">
        <g id="projects" transform="translate(220.000000, 150.000000)" fill="#FFFFFF">
            <g id="project">
                <g id="settings" transform="translate(208.000000, 38.000000)">
                    <path d="M19.1392305,13 C19.1392305,12.7 19.2392305,12.4 19.2392305,12 C19.2392305,11.6 19.2392305,11.3 19.1392305,11 L21.2392305,9.3 C21.4392305,9.1 21.4392305,8.9 21.3392305,8.7 L19.3392305,5.2 C19.2392305,5.1 19.0392305,5 18.7392305,5.1 L16.2392305,6.1 C15.7392305,5.7 15.1392305,5.4 14.5392305,5.1 L14.1392305,2.5 C14.2392305,2.2 13.9392305,2 13.7392305,2 L9.73923048,2 C9.53923048,2 9.23923048,2.2 9.23923048,2.4 L8.83923048,5.1 C8.23923048,5.3 7.73923048,5.7 7.13923048,6.1 L4.73923048,5.1 C4.43923048,5 4.23923048,5.1 4.03923048,5.3 L2.03923048,8.8 C1.93923048,8.9 2.03923048,9.2 2.23923048,9.4 L4.33923048,11 C4.33923048,11.3 4.23923048,11.6 4.23923048,12 C4.23923048,12.4 4.23923048,12.7 4.33923048,13 L2.23923048,14.7 C2.03923048,14.9 2.03923048,15.1 2.13923048,15.3 L4.13923048,18.8 C4.23923048,18.9 4.43923048,19 4.73923048,18.9 L7.23923048,17.9 C7.73923048,18.3 8.33923048,18.6 8.93923048,18.9 L9.33923048,21.5 C9.33923048,21.7 9.53923048,21.9 9.83923048,21.9 L13.8392305,21.9 C14.0392305,21.9 14.3392305,21.7 14.3392305,21.5 L14.7392305,18.9 C15.3392305,18.6 15.9392305,18.3 16.4392305,17.9 L18.9392305,18.9 C19.1392305,19 19.4392305,18.9 19.5392305,18.7 L21.5392305,15.2 C21.6392305,15 21.6392305,14.7 21.4392305,14.6 L19.1392305,13 L19.1392305,13 Z M11.7392305,15.5 C9.83923048,15.5 8.23923048,13.9 8.23923048,12 C8.23923048,10.1 9.83923048,8.5 11.7392305,8.5 C13.6392305,8.5 15.2392305,10.1 15.2392305,12 C15.2392305,13.9 13.6392305,15.5 11.7392305,15.5 L11.7392305,15.5 Z"></path>
                </g>
            </g>
        </g>
    </g>
</svg>